<svg role="img" viewBox="0 0 24 24" xmlns="http://www.w3.org/2000/svg"><title>SerpAPI</title><path fill="#4285F4" d="M12 0C5.372 0 0 5.372 0 12s5.372 12 12 12 12-5.372 12-12S18.628 0 12 0zm5.568 14.163c-.186 2.063-1.626 3.783-3.627 4.317-2.063.548-4.186-.186-5.393-1.873l2.063-1.44c.627.875 1.688 1.316 2.812 1.065 1.065-.251 1.812-1.127 1.874-2.192.063-1.127-.561-2.127-1.564-2.503l-1.627-.627c-2.064-.81-3.191-3.06-2.628-5.185.561-2.064 2.564-3.44 4.69-3.19 1.626.186 3.003 1.19 3.69 2.69l-2.19 1.065c-.374-.81-1.127-1.377-2.002-1.44-.937-.062-1.812.5-2.126 1.377-.313.874.063 1.874.874 2.377l1.627.624c2.189.813 3.69 2.94 3.503 5.128z"/></svg>